<svg xmlns="http://www.w3.org/2000/svg" width="200" height="200" fill="none" xmlns:v="https://vecta.io/nano"><path d="M128.406 89.527c.375 1.02.059 2.157-.75 2.883l-5.075 4.618a22.67 22.67 0 0 1 .199 2.977c0 1.008-.07 2.004-.199 2.977l5.075 4.618c.809.727 1.125 1.864.75 2.883a29.12 29.12 0 0 1-1.852 4.021l-.551.949c-.773 1.29-1.641 2.508-2.59 3.657-.692.844-1.84 1.125-2.872.797l-6.528-2.074a22.58 22.58 0 0 1-5.158 2.977l-1.465 6.692c-.234 1.067-1.055 1.911-2.133 2.087-1.617.269-3.282.41-4.981.41a30.35 30.35 0 0 1-4.982-.41c-1.078-.176-1.899-1.02-2.133-2.087l-1.465-6.692c-1.852-.762-3.587-1.77-5.157-2.977l-6.517 2.086c-1.031.328-2.18.035-2.872-.797a29.88 29.88 0 0 1-2.59-3.657l-.551-.949c-.715-1.29-1.336-2.626-1.852-4.021-.375-1.02-.059-2.156.75-2.883l5.075-4.618a22.99 22.99 0 0 1-.199-2.989 22.67 22.67 0 0 1 .199-2.977l-5.075-4.618c-.809-.727-1.125-1.864-.75-2.883a29.05 29.05 0 0 1 1.852-4.02l.551-.949c.774-1.289 1.641-2.508 2.59-3.657.691-.844 1.84-1.125 2.872-.797l6.529 2.075c1.571-1.207 3.305-2.215 5.157-2.977l1.465-6.693c.234-1.067 1.055-1.91 2.133-2.086 1.618-.281 3.282-.422 4.981-.422s3.364.141 4.982.41c1.078.176 1.899 1.02 2.133 2.086l1.465 6.693a22.54 22.54 0 0 1 5.157 2.977l6.529-2.075c1.031-.328 2.18-.035 2.872.797.949 1.149 1.816 2.368 2.59 3.657l.551.949c.715 1.289 1.336 2.626 1.852 4.02l-.012.012zm-28.119 19.856c2.487 0 4.872-.988 6.631-2.747s2.746-4.143 2.746-6.63a9.38 9.38 0 0 0-9.377-9.377c-2.487 0-4.872.988-6.63 2.746s-2.746 4.144-2.746 6.631.988 4.872 2.746 6.63 4.144 2.747 6.63 2.747z" fill="#e5b66e"/></svg>