<svg xmlns="http://www.w3.org/2000/svg" width="200" height="200" fill="none" xmlns:v="https://vecta.io/nano"><path d="M134.575 97.857c0 15.389-15.348 27.857-34.285 27.857-4.969 0-9.683-.857-13.942-2.397-1.594 1.165-4.192 2.759-7.272 4.098-3.214 1.393-7.085 2.585-10.929 2.585-.87 0-1.647-.522-1.982-1.326s-.147-1.714.455-2.33l.04-.04c.04-.041.094-.094.174-.188a16.05 16.05 0 0 0 .656-.763c.549-.67 1.286-1.661 2.036-2.893 1.339-2.223 2.612-5.143 2.866-8.424-4.018-4.554-6.388-10.139-6.388-16.179C66.004 82.469 81.352 70 100.29 70s34.285 12.469 34.285 27.857z" fill="#e5b66e"/></svg>