<svg xmlns="http://www.w3.org/2000/svg" viewBox="0 0 16 16" fill="none" xmlns:v="https://vecta.io/nano"><path fill="#fc6d26" d="M14.975 8.904L14.19 6.55l-1.552-4.67a.268.268 0 00-.255-.18.268.268 0 00-.254.18l-1.552 4.667H5.422L3.87 1.879a.267.267 0 00-.254-.179.267.267 0 00-.254.18l-1.55 4.667-.784 2.357a.515.515 0 00.193.583l6.78 4.812 6.778-4.812a.516.516 0 00.196-.583z"/><path fill="#e24329" d="M8 14.296l2.578-7.75H5.423L8 14.296z"/><path fill="#fc6d26" d="M8 14.296l-2.579-7.75H1.813L8 14.296z"/><path fill="#fca326" d="M1.81 6.549l-.784 2.354a.515.515 0 00.193.583L8 14.3 1.81 6.55z"/><path fill="#e24329" d="M1.812 6.549h3.612L3.87 1.882a.268.268 0 00-.254-.18.268.268 0 00-.255.18L1.812 6.549z"/><path fill="#fc6d26" d="M8 14.296l2.578-7.75h3.614L8 14.296z"/><path fill="#fca326" d="M14.19 6.549l.783 2.354a.514.514 0 01-.193.583L8 14.296l6.188-7.747h.001z"/><path fill="#e24329" d="M14.19 6.549h-3.61l1.551-4.667a.267.267 0 0 1 .255-.18.27.27 0 0 1 .254.18l1.552 4.667z"/></svg>