<svg xmlns="http://www.w3.org/2000/svg" viewBox="0 -0.5 256 256" preserveAspectRatio="xMidYMid" fill="#8a4182" xmlns:v="https://vecta.io/nano"><path d="M118.267 105.334h19.795l4.918-6.733V45.874h-29.627v52.733l4.915 6.727m-12.759 23.517l6.115-18.717-4.918-6.731L56.271 87.11l-9.154 28.015 50.439 16.296 7.952-2.571m18.552 19.337l-16.012-11.571-7.959 2.573-31.168 42.659 23.967 17.314 31.172-42.661v-8.315m24.225-11.572l-16.016 11.569.004 8.32 31.169 42.659 23.969-17.314-31.175-42.663-7.951-2.571"/><path d="M144.702 110.13l6.118 18.719 7.958 2.569 50.435-16.293-9.156-28.017-50.436 16.296-4.918 6.725M128.171.106C57.709.106.383 57.099.383 127.152c0 70.078 57.326 127.087 127.787 127.087 70.455 0 127.775-57.008 127.775-127.087C255.945 57.099 198.625.107 128.17.107h0 0zm0 25.725c56.269 0 101.9 45.357 101.9 101.321 0 55.982-45.631 101.359-101.9 101.359-56.288 0-101.913-45.377-101.913-101.359 0-55.964 45.625-101.321 101.913-101.321h0zm77.394 129.56l-38.338-12.388 2.535-7.765 38.338 12.388-2.535 7.765M156.669 94.19l-6.644-4.798 23.693-32.428 6.644 4.798-23.693 32.428m-56.597-.295l-23.69-32.43 6.644-4.798 23.69 32.428-6.644 4.8m-49.464 61.012l-2.536-7.765 38.334-12.382 2.536 7.765-38.335 12.382m73.2 53.252h8.211v-40.085h-8.211v40.085h0z"/></svg>