<svg xmlns="http://www.w3.org/2000/svg" viewBox="0 0 256 256" preserveAspectRatio="xMidYMid" fill="#000000" xmlns:v="https://vecta.io/nano"><defs><linearGradient x1="98.0308675%" y1="0.160599572%" x2="58.8877062%" y2="40.7655246%" id="A"><stop stop-color="#0052cc" offset="18%"/><stop stop-color="#2684ff" offset="100%"/></linearGradient><linearGradient x1="100.665247%" y1="0.45503212%" x2="55.4018095%" y2="44.7269807%" id="B"><stop stop-color="#0052cc" offset="18%"/><stop stop-color="#2684ff" offset="100%"/></linearGradient></defs><path d="M244.658 0H121.707a55.5 55.5 0 0 0 16.256 39.246 55.5 55.5 0 0 0 39.246 16.256h22.649v21.867c.02 30.625 24.841 55.447 55.467 55.467V10.667A10.67 10.67 0 0 0 244.658 0z" fill="#2684ff"/><path d="M183.822 61.262H60.871c.02 30.625 24.841 55.447 55.467 55.467h22.649v21.938c.039 30.625 24.877 55.431 55.502 55.431V71.929a10.67 10.67 0 0 0-10.667-10.667z" fill="url(#A)"/><path d="M122.951 122.489H0c0 30.653 24.849 55.502 55.502 55.502h22.72v21.867c.02 30.598 24.798 55.408 55.396 55.467V133.156a10.67 10.67 0 0 0-10.667-10.667z" fill="url(#B)"/></svg>