<svg xmlns="http://www.w3.org/2000/svg" viewBox="0 0 32 32" fill="none" xmlns:v="https://vecta.io/nano"><path d="M2.909 3c-.265-.004-.518.114-.691.321a.95.95 0 0 0-.206.753L5.82 27.948c.098.603.601 1.047 1.193 1.052h18.27c.444.006.826-.325.897-.778l3.808-24.142c.043-.27-.033-.546-.206-.753s-.426-.325-.691-.321L2.909 3zm16.036 17.255h-5.831l-1.579-8.518h8.823l-1.413 8.518z" fill="#2684ff"/><path fill-rule="evenodd" d="M28.778 11.736h-8.42l-1.413 8.518h-5.831l-6.885 8.44c.218.195.496.303.785.306h18.274c.444.006.826-.325.897-.778l2.593-16.486z" fill="url(#A)"/><defs><linearGradient id="A" x1="30.725" y1="14.122" x2="20.576" y2="28.075" gradientUnits="userSpaceOnUse"><stop offset=".18" stop-color="#0052cc"/><stop offset="1" stop-color="#2684ff"/></linearGradient></defs></svg>