<svg xmlns="http://www.w3.org/2000/svg" width="58" height="40" fill="none" xmlns:v="https://vecta.io/nano"><path d="M5.714 5.714A5.72 5.72 0 0 1 11.429 0h34.286a5.72 5.72 0 0 1 5.714 5.714v22.857h-5.714V5.714H11.429v22.857H5.714V5.714zM0 33.143c0-.947.768-1.714 1.714-1.714h53.714c.946 0 1.714.768 1.714 1.714A6.86 6.86 0 0 1 50.286 40H6.857A6.86 6.86 0 0 1 0 33.143zm25.089-17.339l-2.768 2.768 2.768 2.768c.839.839.839 2.196 0 3.027s-2.196.839-3.027 0l-4.286-4.286c-.839-.839-.839-2.197 0-3.027l4.286-4.286c.839-.839 2.196-.839 3.027 0s.839 2.196 0 3.027v.009zm10-3.036l4.286 4.286c.839.839.839 2.196 0 3.027l-4.286 4.286c-.839.839-2.196.839-3.027 0s-.839-2.197 0-3.027l2.768-2.768-2.768-2.768c-.839-.839-.839-2.196 0-3.027s2.196-.839 3.027 0v-.009z" fill="#ffce67"/></svg>